P1
# CREATOR: GIMP PNM Filter Version 1.1
10 10
0001110000000111100000011000000001111000000111110000000011000000001110
000111110000001100000000000000