P1
# CREATOR: GIMP PNM Filter Version 1.1
10 10
0000000000000111100000111110000001100000001111000000011111000000011100
001111100000111000000000000000