P1
# CREATOR: GIMP PNM Filter Version 1.1
10 10
0000010000000111000000011100000011100000000111110000001011100000011100
000111110000111100000000000000