P1
# CREATOR: GIMP PNM Filter Version 1.1
10 10
0000010000001111110000011100000001100000000111000000011111000000001100
000001110000011110000001100000