P1
# CREATOR: GIMP PNM Filter Version 1.1
10 10
0000000000001111100001111110000011000000001111100001111111100010001110
000011111000111110000000100000