P1
# CREATOR: GIMP PNM Filter Version 1.1
10 10
0001110000001111110001110011001000011100000111100000011110000000111000
001111100000111110000000000000