P1
# CREATOR: GIMP PNM Filter Version 1.1
10 10
0000000000001101100001111110000000111100001111100000011110000000011100
001111100000111100000000000000