P1
# CREATOR: GIMP PNM Filter Version 1.1
10 10
0000010000001111100001110111000010001100000011100000011111000000011100
001101110000111111000000010000