P1
# CREATOR: GIMP PNM Filter Version 1.1
10 10
0000000000000010011000111111100001111100000011100000011111000000111110
000011110000111100000011100000