P1
# CREATOR: GIMP PNM Filter Version 1.1
10 10
0000000000001111000000111111000000011000000111100000011110000000111100
001011100000111110000000000000