P1
# CREATOR: GIMP PNM Filter Version 1.1
10 10
0000000000000111100000110011000110000010010000001001000000100100000010011100011000011111000000000000
