P1
# CREATOR: GIMP PNM Filter Version 1.1
10 10
0000000000000001000000001100000001011000001000100000000010000000001000
000000100000000010000000000000