P1
# CREATOR: GIMP PNM Filter Version 1.1
10 10
0000000000000011000000111100000100010000010001000000000100000001110000
000100000000011111000000000000