P1
# CREATOR: GIMP PNM Filter Version 1.1
10 10
0000000000000111110001110001000000000100000011110000011111000000000110
000000001000010000100001111110