P1
# CREATOR: GIMP PNM Filter Version 1.1
10 10
0000000000000001000000001100000000110000000101000001100100000111110000
000001100000000110000000010000