P1
# CREATOR: GIMP PNM Filter Version 1.1
10 10
0000000000000000000000111110000010000000001000000000111111000000000100
000000010000011111000000000000