P1
# CREATOR: GIMP PNM Filter Version 1.1
10 10
0000000000001111100000100001000010000000001000000000111111000011000100
000111110000000000000000000000