P1
# CREATOR: GIMP PNM Filter Version 1.1
10 10
0000000000000000000000000000000011111110000000110000000010000000001000000001100000000100000000010000
