P1
# CREATOR: GIMP PNM Filter Version 1.1
10 10
0000000000001111000000100011000110000100011111110000100001000010000100
001111110000000000000000000000