P1
# CREATOR: GIMP PNM Filter Version 1.1
10 10
0000000000000000000000011111000001000110000110001000001111100000000010
000000001000001111100000000000