P1
# CREATOR: GIMP PNM Filter Version 1.1
10 10
0000000000000000000000001100000001110000001111000000111100000010111000
000001000000000110000000000000