P1
# CREATOR: GIMP PNM Filter Version 1.1
10 10
0000110000000111000000111110000011011000000011100000000110000000011000
000001100000000110000000000000