P1
# CREATOR: GIMP PNM Filter Version 1.1
10 10
0000001000000001110000001111000000111100000000110000000011000000001100
000000110000000011000000000100