P1
# CREATOR: GIMP PNM Filter Version 1.1
10 10
0000010000000111100000111110000111011000010001100000001110000000110000
000001000000001100000000000000