P1
# CREATOR: GIMP PNM Filter Version 1.1
10 10
0011101000011111100001101111101100000110110000001111000000111100000011
111100111000111111000001011000