P1
# CREATOR: GIMP PNM Filter Version 1.1
10 10
0000000000000101000001111111000110111110110000001111000000111100000011
111100111001111111100000011000