P1
# CREATOR: GIMP PNM Filter Version 1.1
10 10
0010111100001111111001100001101110000010110000001111000000101100000011
111100011000111111100001011100