P1
# CREATOR: GIMP PNM Filter Version 1.1
10 10
0000000000000110100000111111000011101110001100011000110000100011000110
001111111000011111000000000000