P1
# CREATOR: GIMP PNM Filter Version 1.1
10 10
0000110000000111110000011011000001101110000111111000001111100000000110
000000011000000001100000000000