P1
# CREATOR: GIMP PNM Filter Version 1.1
10 10
0000111000001111110000110011000011011100000111110000001110000000001100
000001100000000010000000001000