P1
# CREATOR: GIMP PNM Filter Version 1.1
10 10
0000111000000111110000011011000011111100000011110000000011000000001100
000000110000000011000000000000