P1
# CREATOR: GIMP PNM Filter Version 1.1
10 10
0001111100000111110000010011000011111110000111110000000111100000000110
000000110000000001100000000000