P1
# CREATOR: GIMP PNM Filter Version 1.1
10 10
0011110000011111100001100110000111111000001111100000011110000000011000
000001100000000110000000000000