P1
# CREATOR: GIMP PNM Filter Version 1.1
10 10
0000010000000011100000011110000011111000011111100001111111000010111000
000001100000000110000000011000