P1
# CREATOR: GIMP PNM Filter Version 1.1
10 10
0000000000000011100000011110000011111000011111100001111110000110111000
000001100000000110000000011000