P1
# CREATOR: GIMP PNM Filter Version 1.1
10 10
0000010000000011000000011100000011110000001111100000111111000001111100
000001000000000100000000000000