P1
# CREATOR: GIMP PNM Filter Version 1.1
10 10
0000001000000001100000011110000001111000001111100001111111000010111100
000000110000000010000000001000