P1
# CREATOR: GIMP PNM Filter Version 1.1
10 10
0000000000000111000000111110000011011000001001100000001100000001110000
001111111000000111100000000000