P1
# CREATOR: GIMP PNM Filter Version 1.1
10 10
0000110000001111100001110111000110001100010001110000011110000001110000
001111111000111111100000000000