P1
# CREATOR: GIMP PNM Filter Version 1.1
10 10
0000110000000111100000111110000011011000000011100000001100000001110000
000110100000111111100001101100