P1
# CREATOR: GIMP PNM Filter Version 1.1
10 10
0001110000001111100001110110000110001100000001100000000110000000111000
001111000001111111101111111000