P1
# CREATOR: GIMP PNM Filter Version 1.1
10 10
0000100000001111000001111110000110011000000001100000001110000001110000
000110100000111111100011111000