P1
# CREATOR: GIMP PNM Filter Version 1.1
10 10
0000000000001001100000111111000001011110000000110000000111000000111000
000011000000011100000001100000