P1
# CREATOR: GIMP PNM Filter Version 1.1
10 10
0000000000000110100000111111100010111100000001110000000110000000110000
000111000000011000000001100000