P1
# CREATOR: GIMP PNM Filter Version 1.1
10 10
0000000000000101100000111111000010101100000000110000000011000000001100
000001100000000010000000000000