P1
# CREATOR: GIMP PNM Filter Version 1.1
10 10
0000000000000000000000111101000011111110000001111000000011000000011100
000001100000000110000000010000