P1
# CREATOR: GIMP PNM Filter Version 1.1
10 10
0000000000001111110000111111100000001100000000110000000110000000011000
000011100000000100000000000000