P1
# CREATOR: GIMP PNM Filter Version 1.1
10 10
0000000000001111110000110011000011001100001111110000111111000011101110
011100011000111111100001111100