P1
# CREATOR: GIMP PNM Filter Version 1.1
10 10
0000110000000111110000011111000011111100001111100000110111000011011100
001111110000000100000000000000