P1
# CREATOR: GIMP PNM Filter Version 1.1
10 10
0000010000000111110000111111000001101100000111110000001110000001111100
000110110000011111100001111100