P1
# CREATOR: GIMP PNM Filter Version 1.1
10 10
0000100000000111110000111011000011001100001111110000111111000011001110
001100110000111111000000110000