P1
# CREATOR: GIMP PNM Filter Version 1.1
10 10
0001111000000111110000011111000001111100001110111000110001100011101110
001111110000001110000000000000