P1
# CREATOR: GIMP PNM Filter Version 1.1
10 10
0000000000000011110000011110000011100000011000000001110100000111111000
011101110001110011100011111100