P1
# CREATOR: GIMP PNM Filter Version 1.1
10 10
0000010000000111110000011011000011100100001101000000111111000011111110
001100110000011111000000011000