P1
# CREATOR: GIMP PNM Filter Version 1.1
10 10
0000110000000111110000011011000011000100001100000000111110000011111100
001100110000111111000001111000