P1
# CREATOR: GIMP PNM Filter Version 1.1
10 10
0000100000000111100000011111000011001100001100000000111110000011111100
001111110000011111000000100000