P1
# CREATOR: GIMP PNM Filter Version 1.1
10 10
0000110000000111100000111010000011000000001111100000111111000011101100
001111110000011111000000101000